<svg width="471" height="144" viewBox="0 0 471 144" fill="none" xmlns="http://www.w3.org/2000/svg">
<path d="M71.4737 49L43.7609 1.00001L118.239 1L90.5263 49C86.2924 56.3334 75.7076 56.3333 71.4737 49ZM95.7439 52L123.457 4.00002L160.696 68.5H105.27C96.8024 68.5 91.51 59.3333 95.7439 52ZM105.27 74.75L160.696 74.75L123.457 139.25L95.7439 91.25C91.51 83.9167 96.8024 74.75 105.27 74.75ZM90.4974 94.5L118.21 142.5H43.7321L71.4449 94.5C75.6788 87.1667 86.2635 87.1667 90.4974 94.5ZM66.684 91.25L38.9711 139.25L1.73206 74.75H57.1577C65.6255 74.75 70.9179 83.9167 66.684 91.25ZM57.1577 68.5L1.73205 68.5L38.9711 4L66.684 52C70.9179 59.3333 65.6255 68.5 57.1577 68.5Z" fill="url(#paint0_linear_8_90)" stroke="#E0642C" stroke-width="2"/>
<circle cx="82" cy="72" r="61" fill="white" stroke="#E0642C" stroke-width="2"/>
<circle cx="82" cy="72" r="60" fill="black"/>
<circle cx="82" cy="72" r="48" fill="white"/>
<circle cx="82" cy="72" r="36" fill="black"/>
<circle cx="82" cy="72" r="24" fill="#DF612B"/>
<circle cx="82" cy="72" r="24" fill="black"/>
<circle cx="82" cy="72" r="48" fill="#DF612B"/>
<circle cx="82" cy="72" r="48" fill="url(#paint1_linear_8_90)"/>
<path d="M118 72C118 91.8823 101.882 108 82 108C62.1177 108 46 91.8823 46 72C46 52.1177 62.1177 36 82 36C101.882 36 118 52.1177 118 72ZM58.0064 72C58.0064 85.2513 68.7487 95.9936 82 95.9936C95.2513 95.9936 105.994 85.2513 105.994 72C105.994 58.7487 95.2513 48.0064 82 48.0064C68.7487 48.0064 58.0064 58.7487 58.0064 72Z" fill="white"/>
<path d="M142 72C142 105.137 115.137 132 82 132C48.8629 132 22 105.137 22 72C22 38.8629 48.8629 12 82 12C115.137 12 142 38.8629 142 72ZM33.9911 72C33.9911 98.5146 55.4854 120.009 82 120.009C108.515 120.009 130.009 98.5146 130.009 72C130.009 45.4854 108.515 23.9911 82 23.9911C55.4854 23.9911 33.9911 45.4854 33.9911 72Z" fill="white"/>
<circle cx="82" cy="72" r="24" fill="#DF612B"/>
<circle cx="82" cy="72" r="24" fill="url(#paint2_linear_8_90)"/>
<circle cx="82" cy="72" r="12" fill="white"/>
<path d="M142 72C142 105.137 115.137 132 82 132C48.8629 132 22 105.137 22 72C22 38.8629 48.8629 12 82 12C115.137 12 142 38.8629 142 72ZM33.9911 72C33.9911 98.5146 55.4854 120.009 82 120.009C108.515 120.009 130.009 98.5146 130.009 72C130.009 45.4854 108.515 23.9911 82 23.9911C55.4854 23.9911 33.9911 45.4854 33.9911 72Z" fill="white"/>
<path d="M91.4931 67.0192L93.1066 67.284C92.8218 68.1293 92.7211 69.3188 93.4965 70.2634L92.6322 71.2337L87.2325 70.8003L82 72L86.9364 70.0843L91.4931 67.0192Z" fill="url(#paint3_linear_8_90)"/>
<path d="M93.3917 66.6361L94.9106 66.8618C94.7048 67.7181 94.7145 68.8344 95.4371 69.8185L94.1511 70.8506C93.8846 70.6713 93.6689 70.4734 93.4965 70.2634C92.7211 69.3188 92.8218 68.1293 93.1066 67.284C93.1914 67.0324 93.2925 66.8112 93.3917 66.6361Z" fill="url(#paint4_linear_8_90)"/>
<path d="M95.2903 65.8698L96.8852 66.253C96.6206 67.1248 96.5388 68.2743 97.2478 69.318L96.0497 70.4675C95.8044 70.2611 95.6021 70.0433 95.4371 69.8185C94.7145 68.8344 94.7048 67.7181 94.9106 66.8618C95.0069 66.4607 95.1505 66.1166 95.2903 65.8698Z" fill="url(#paint5_linear_8_90)"/>
<path d="M99.9432 64.9025C99.554 65.8648 99.3798 67.3228 100.43 68.5308C100.436 68.5378 100.443 68.5448 100.449 68.5518L99.4672 69.7012C99.2436 69.5526 99.0542 69.3855 98.8947 69.2047C97.9875 68.1759 98.0515 66.7018 98.3211 65.6525C98.395 65.3645 98.4845 65.1085 98.5736 64.9025L99.9432 64.9025Z" fill="url(#paint6_linear_8_90)"/>
<path d="M97.1889 65.4867L98.3663 65.4867C98.3507 65.5406 98.3356 65.5959 98.3211 65.6525C98.0515 66.7018 97.9875 68.1759 98.8947 69.2047L97.9483 70.0843C97.6576 69.8398 97.4273 69.5823 97.2478 69.318C96.5388 68.2743 96.6206 67.1248 96.8852 66.253C96.9736 65.9618 97.0824 65.7016 97.1889 65.4867Z" fill="url(#paint7_linear_8_90)"/>
<path d="M101.774 64.3373C101.267 65.7509 101.914 67.9174 102.849 68.4369C102.861 68.4436 102.873 68.4499 102.885 68.456L101.366 69.318C100.99 69.0812 100.688 68.8229 100.449 68.5518C100.443 68.5448 100.436 68.5378 100.43 68.5308C99.3798 67.3228 99.554 65.8648 99.9432 64.9025C100.031 64.6862 100.129 64.495 100.227 64.3373L101.774 64.3373Z" fill="url(#paint8_linear_8_90)"/>
<path d="M108.201 62.8047C107.568 63.6987 107.062 65.8698 109.72 66.253L110.251 66.1223C108.479 66.8886 104.48 68.5518 103.264 68.5518C103.134 68.5518 103.007 68.5181 102.885 68.456C102.873 68.4499 102.861 68.4436 102.849 68.4369C101.914 67.9174 101.267 65.7509 101.774 64.3373C101.964 63.8041 102.319 63.378 102.885 63.1879C104.707 62.5749 107.695 62.5344 108.96 62.5908L108.201 62.8047Z" fill="url(#paint9_linear_8_90)"/>
<path d="M150.139 52.8012L120.732 60.5059C121.359 59.9939 122.15 59.344 123.01 58.6337C125.796 56.3324 129.296 53.3969 130.225 52.4601C131.44 51.234 134.528 49.6504 135.921 49.0119C138.459 48.0096 144.424 46.5412 150.139 47.6043C150.978 47.7603 151.812 47.9709 152.628 48.2456C152.952 48.3733 153.253 48.9352 151.869 50.1613C150.485 51.3873 150.139 52.4321 150.139 52.8012Z" fill="#0A80AA"/>
<path d="M151.092 56.2856C151.158 56.2901 151.22 56.2787 151.278 56.2494C151.286 56.5998 151.375 57.001 151.53 57.4408C152.023 58.8412 153.185 60.6333 154.527 62.4216C154.85 62.8517 155.286 63.4433 155.286 63.571C151.641 72.1869 141.616 70.9923 137.06 69.3181C136.047 68.9349 133.632 67.5674 131.364 66.253C129.663 65.2671 126.366 63.7386 123.749 62.8047C123.695 62.7853 123.641 62.766 123.587 62.7469C122.78 62.4608 122.064 62.1796 121.5 62L151.092 56.2856Z" fill="#0781A6"/>
<path d="M151.278 56.2494C152.11 55.4105 151.917 54.342 151.448 53.6095L157.565 53.2263C158.451 53.0986 159.843 53.2263 158.324 54.7589C156.426 56.6746 152.71 57.4408 151.53 57.4408C151.375 57.001 151.286 56.5998 151.278 56.2494Z" fill="#0A80AA"/>
<path d="M135.921 49.0119C134.528 49.6504 131.44 51.234 130.225 52.4601C129.296 53.3969 125.796 56.3324 123.01 58.6337C125.795 55.0433 132.503 46.7897 137.06 42.4986C142.756 37.1347 150.35 39.4335 151.869 39.8166C153.084 40.1231 152.882 40.7106 152.628 40.966C149.287 44.6441 149.577 46.9241 150.139 47.6043C144.424 46.5412 138.459 48.0096 135.921 49.0119Z" fill="#03ACEC"/>
<path d="M120.732 60.5059L150.139 52.8012C149.087 53.8626 150.302 56.2311 151.092 56.2856L121.5 62C122.064 62.1796 122.78 62.4608 123.587 62.7469C123.641 62.766 123.695 62.7853 123.749 62.8047L110.251 66.1223L109.72 66.253C107.062 65.8698 107.568 63.6987 108.201 62.8047L108.96 62.5908L123.01 58.6337C122.15 59.344 121.359 59.9939 120.732 60.5059Z" fill="#05AEEE"/>
<path d="M150.139 52.8012C150.483 52.6278 151.06 53.0038 151.448 53.6095C151.917 54.342 152.11 55.4105 151.278 56.2494L151.092 56.2856C150.302 56.2311 149.087 53.8626 150.139 52.8012Z" fill="#02AFED"/>
<path d="M151.278 56.2494C152.11 55.4105 151.917 54.342 151.448 53.6095M151.278 56.2494C151.286 56.5998 151.375 57.001 151.53 57.4408M151.278 56.2494C151.22 56.2787 151.158 56.2901 151.092 56.2856M151.278 56.2494L151.092 56.2856M150.139 52.8012L120.732 60.5059C121.359 59.9939 122.15 59.344 123.01 58.6337M150.139 52.8012C150.139 52.4321 150.485 51.3873 151.869 50.1613C153.253 48.9352 152.952 48.3733 152.628 48.2456C151.812 47.9709 150.978 47.7603 150.139 47.6043M150.139 52.8012C150.483 52.6278 151.06 53.0038 151.448 53.6095M150.139 52.8012C149.087 53.8626 150.302 56.2311 151.092 56.2856M131.364 66.253C133.632 67.5674 136.047 68.9349 137.06 69.3181C141.616 70.9923 151.641 72.1869 155.286 63.571C155.286 63.4433 154.85 62.8517 154.527 62.4216C153.185 60.6333 152.023 58.8412 151.53 57.4408M131.364 66.253C129.663 65.2671 126.366 63.7386 123.749 62.8047M131.364 66.253C129.5 65.1726 126.223 63.6817 123.587 62.7469M150.139 47.6043C144.424 46.5412 138.459 48.0096 135.921 49.0119C134.528 49.6504 131.44 51.234 130.225 52.4601C129.296 53.3969 125.796 56.3324 123.01 58.6337M150.139 47.6043C149.577 46.9241 149.287 44.6441 152.628 40.966C152.882 40.7106 153.084 40.1231 151.869 39.8166C150.35 39.4335 142.756 37.1347 137.06 42.4986C132.503 46.7897 125.795 55.0433 123.01 58.6337M123.01 58.6337L108.96 62.5908M151.448 53.6095L157.565 53.2263C158.451 53.0986 159.843 53.2263 158.324 54.7589C156.426 56.6746 152.71 57.4408 151.53 57.4408M109.72 66.253C107.062 65.8698 107.568 63.6987 108.201 62.8047L108.96 62.5908M109.72 66.253L123.749 62.8047M109.72 66.253L110.251 66.1223M123.749 62.8047C123.695 62.7853 123.641 62.766 123.587 62.7469M123.749 62.8047L110.251 66.1223M108.96 62.5908C107.695 62.5344 104.707 62.5749 102.885 63.1879C102.319 63.378 101.964 63.8041 101.774 64.3373M103.264 68.5518C104.48 68.5518 108.479 66.8886 110.251 66.1223M103.264 68.5518C103.134 68.5518 103.007 68.5181 102.885 68.456M103.264 68.5518C103.122 68.5518 102.982 68.5112 102.849 68.4369M101.774 64.3373L100.227 64.3373C100.129 64.495 100.031 64.6862 99.9432 64.9025M101.774 64.3373C101.267 65.7509 101.914 67.9174 102.849 68.4369M101.366 69.318L102.885 68.456M101.366 69.318C100.99 69.0812 100.688 68.8229 100.449 68.5518M101.366 69.318C100.981 69.0751 100.673 68.8096 100.43 68.5308M102.885 68.456C102.873 68.4499 102.861 68.4436 102.849 68.4369M99.9432 64.9025L98.5736 64.9025C98.4845 65.1085 98.395 65.3645 98.3211 65.6525M99.9432 64.9025C99.554 65.8648 99.3798 67.3228 100.43 68.5308M100.449 68.5518L99.4672 69.7012C99.2436 69.5526 99.0542 69.3855 98.8947 69.2047M100.449 68.5518C100.443 68.5448 100.436 68.5378 100.43 68.5308M98.3663 65.4867L97.1889 65.4867C97.0824 65.7016 96.9736 65.9618 96.8852 66.253M98.3663 65.4867L98.3211 65.6525M98.3663 65.4867C98.3507 65.5406 98.3356 65.5959 98.3211 65.6525M98.8947 69.2047L97.9483 70.0843C97.6576 69.8398 97.4273 69.5823 97.2478 69.318M98.8947 69.2047C97.9875 68.1759 98.0515 66.7018 98.3211 65.6525M96.8852 66.253L95.2903 65.8698C95.1505 66.1166 95.0069 66.4607 94.9106 66.8618M96.8852 66.253C96.6206 67.1248 96.5388 68.2743 97.2478 69.318M97.2478 69.318L96.0497 70.4675C95.8044 70.2611 95.6021 70.0433 95.4371 69.8185M94.9106 66.8618L93.3917 66.6361C93.2925 66.8112 93.1914 67.0324 93.1066 67.284M94.9106 66.8618C94.7048 67.7181 94.7145 68.8344 95.4371 69.8185M95.4371 69.8185L94.1511 70.8506C93.8846 70.6713 93.6689 70.4734 93.4965 70.2634M93.1066 67.284L91.4931 67.0192L86.9364 70.0843M93.1066 67.284C92.8218 68.1293 92.7211 69.3188 93.4965 70.2634M86.9364 70.0843L82 72L87.2325 70.8003M86.9364 70.0843C86.473 70.4171 86.8527 70.8003 87.2325 70.8003M87.2325 70.8003L92.6322 71.2337L93.4965 70.2634M151.092 56.2856L121.5 62C122.064 62.1796 122.78 62.4608 123.587 62.7469" stroke="black" stroke-width="0.5"/>
<path d="M195.28 105V36.36H226C233.36 36.36 238.896 38.024 242.608 41.352C246.256 44.616 248.08 48.904 248.08 54.216C248.08 60.936 244.496 65.512 237.328 67.944V68.232C241.168 69.384 244.24 71.464 246.544 74.472C248.912 77.48 250.096 81.064 250.096 85.224C250.096 91.304 248.08 96.072 244.048 99.528C239.888 103.176 234.128 105 226.768 105H195.28ZM209.2 74.28V93.48H225.232C228.56 93.48 231.184 92.648 233.104 90.984C235.024 89.256 235.984 86.984 235.984 84.168C235.984 81.032 234.928 78.6 232.816 76.872C230.768 75.144 228.112 74.28 224.848 74.28H209.2ZM209.2 64.008H224.272C227.344 64.008 229.808 63.304 231.664 61.896C233.52 60.424 234.448 58.376 234.448 55.752C234.448 53.192 233.552 51.208 231.76 49.8C230.032 48.392 227.632 47.688 224.56 47.688H209.2V64.008ZM280.36 106.44C272.424 106.44 266.184 104.008 261.64 99.144C257.096 94.216 254.824 87.944 254.824 80.328C254.824 72.968 257.096 66.824 261.64 61.896C266.184 56.904 272.008 54.408 279.112 54.408C286.856 54.408 292.84 57.096 297.064 62.472C301.288 67.848 303.4 75.048 303.4 84.072H267.688C268.2 87.976 269.512 91.016 271.624 93.192C273.736 95.304 276.616 96.36 280.264 96.36C285.064 96.36 288.232 94.344 289.768 90.312H302.632C301.672 94.92 299.24 98.76 295.336 101.832C291.432 104.904 286.44 106.44 280.36 106.44ZM279.304 64.488C272.968 64.488 269.16 68.008 267.88 75.048H289.768C289.576 71.912 288.52 69.384 286.6 67.464C284.68 65.48 282.248 64.488 279.304 64.488ZM305.625 64.392V55.752H312.441V40.392H325.209V55.752H333.657V64.392H325.209V90.504C325.209 93.768 326.841 95.4 330.105 95.4L333.945 95.304V104.904C331.961 105.032 329.241 105.096 325.785 105.096C322.009 105.096 318.841 104.2 316.281 102.408C313.721 100.552 312.441 97.512 312.441 93.288V64.392H305.625ZM352.956 55.752V63.624H353.244C354.78 60.744 356.476 58.632 358.332 57.288C360.188 55.88 362.524 55.176 365.34 55.176C366.684 55.176 367.708 55.304 368.412 55.56V66.984H368.124C363.708 66.536 360.156 67.496 357.468 69.864C354.78 72.232 353.436 75.944 353.436 81V105H340.38V55.752H352.956ZM395.766 106.44C387.83 106.44 381.59 104.008 377.046 99.144C372.502 94.216 370.23 87.944 370.23 80.328C370.23 72.968 372.502 66.824 377.046 61.896C381.59 56.904 387.414 54.408 394.518 54.408C402.262 54.408 408.246 57.096 412.47 62.472C416.694 67.848 418.806 75.048 418.806 84.072H383.094C383.606 87.976 384.918 91.016 387.03 93.192C389.142 95.304 392.022 96.36 395.67 96.36C400.47 96.36 403.638 94.344 405.174 90.312H418.038C417.078 94.92 414.646 98.76 410.742 101.832C406.838 104.904 401.846 106.44 395.766 106.44ZM394.71 64.488C388.374 64.488 384.566 68.008 383.286 75.048H405.174C404.982 71.912 403.926 69.384 402.006 67.464C400.086 65.48 397.654 64.488 394.71 64.488ZM455.857 105C455.217 104.168 454.705 102.344 454.321 99.528H454.129C452.721 101.64 450.929 103.272 448.753 104.424C446.577 105.576 443.537 106.152 439.633 106.152C434.449 106.152 430.289 104.84 427.153 102.216C424.017 99.592 422.449 95.88 422.449 91.08C422.449 86.088 424.177 82.44 427.633 80.136C431.089 77.768 435.953 76.136 442.225 75.24C446.833 74.6 449.969 73.96 451.633 73.32C453.297 72.616 454.129 71.4 454.129 69.672C454.129 67.88 453.425 66.472 452.017 65.448C450.609 64.36 448.561 63.816 445.873 63.816C439.921 63.816 436.753 66.12 436.369 70.728H424.753C424.945 66.056 426.833 62.184 430.417 59.112C434.001 56.04 439.185 54.504 445.969 54.504C459.793 54.504 466.705 60.552 466.705 72.648V97.704C466.705 101.416 467.281 103.688 468.433 104.52V105H455.857ZM442.801 97.032C446.385 97.032 449.201 96.104 451.249 94.248C453.361 92.392 454.417 90.184 454.417 87.624V80.232C453.009 81.064 449.969 82.024 445.297 83.112C441.585 83.944 438.961 84.904 437.425 85.992C435.889 87.016 435.121 88.616 435.121 90.792C435.121 94.952 437.681 97.032 442.801 97.032Z" fill="#DF612B"/>
<defs>
<linearGradient id="paint0_linear_8_90" x1="81.2139" y1="0" x2="81.2139" y2="143.5" gradientUnits="userSpaceOnUse">
<stop stop-color="#EEA93D"/>
<stop offset="1" stop-color="#DF612B"/>
</linearGradient>
<linearGradient id="paint1_linear_8_90" x1="82" y1="24" x2="82" y2="120" gradientUnits="userSpaceOnUse">
<stop stop-color="#EEA93D"/>
<stop offset="1" stop-color="#DF612B"/>
</linearGradient>
<linearGradient id="paint2_linear_8_90" x1="82" y1="48" x2="82" y2="96" gradientUnits="userSpaceOnUse">
<stop stop-color="#EEA93D"/>
<stop offset="1" stop-color="#DF612B"/>
</linearGradient>
<linearGradient id="paint3_linear_8_90" x1="97.9483" y1="64.3373" x2="99.4925" y2="69.6939" gradientUnits="userSpaceOnUse">
<stop stop-color="#FFB800"/>
<stop offset="0.507442" stop-color="#FFE9B1"/>
<stop offset="1" stop-color="#DD9E00"/>
</linearGradient>
<linearGradient id="paint4_linear_8_90" x1="97.9483" y1="64.3373" x2="99.4925" y2="69.6939" gradientUnits="userSpaceOnUse">
<stop stop-color="#FFB800"/>
<stop offset="0.507442" stop-color="#FFE9B1"/>
<stop offset="1" stop-color="#DD9E00"/>
</linearGradient>
<linearGradient id="paint5_linear_8_90" x1="97.9483" y1="64.3373" x2="99.4925" y2="69.6939" gradientUnits="userSpaceOnUse">
<stop stop-color="#FFB800"/>
<stop offset="0.507442" stop-color="#FFE9B1"/>
<stop offset="1" stop-color="#DD9E00"/>
</linearGradient>
<linearGradient id="paint6_linear_8_90" x1="97.9483" y1="64.3373" x2="99.4925" y2="69.6939" gradientUnits="userSpaceOnUse">
<stop stop-color="#FFB800"/>
<stop offset="0.507442" stop-color="#FFE9B1"/>
<stop offset="1" stop-color="#DD9E00"/>
</linearGradient>
<linearGradient id="paint7_linear_8_90" x1="97.9483" y1="64.3373" x2="99.4925" y2="69.6939" gradientUnits="userSpaceOnUse">
<stop stop-color="#FFB800"/>
<stop offset="0.507442" stop-color="#FFE9B1"/>
<stop offset="1" stop-color="#DD9E00"/>
</linearGradient>
<linearGradient id="paint8_linear_8_90" x1="97.9483" y1="64.3373" x2="99.4925" y2="69.6939" gradientUnits="userSpaceOnUse">
<stop stop-color="#FFB800"/>
<stop offset="0.507442" stop-color="#FFE9B1"/>
<stop offset="1" stop-color="#DD9E00"/>
</linearGradient>
<linearGradient id="paint9_linear_8_90" x1="97.9483" y1="64.3373" x2="99.4925" y2="69.6939" gradientUnits="userSpaceOnUse">
<stop stop-color="#FFB800"/>
<stop offset="0.507442" stop-color="#FFE9B1"/>
<stop offset="1" stop-color="#DD9E00"/>
</linearGradient>
</defs>
</svg>
