<svg width="48" height="48" viewBox="0 0 48 48" fill="none" xmlns="http://www.w3.org/2000/svg">
<path d="M47.2816 29.8062C44.0758 42.6634 31.0522 50.4882 18.192 47.2819C5.33716 44.0764 -2.48842 31.0534 0.718922 18.1969C3.92326 5.3382 16.9469 -2.4873 29.8033 0.718197C42.6626 3.9237 50.4875 16.9482 47.2816 29.8062Z" fill="#F7931A"/>
<path d="M34.5821 20.5806C35.0598 17.3871 32.6283 15.6703 29.3036 14.5251L30.3821 10.1991L27.7488 9.54284L26.6988 13.7548C26.0066 13.5823 25.2956 13.4196 24.5891 13.2583L25.6466 9.01859L23.0148 8.36234L21.9356 12.6868C21.3626 12.5563 20.8001 12.4273 20.2541 12.2916L20.2571 12.2781L16.6256 11.3713L15.9251 14.1838C15.9251 14.1838 17.8788 14.6316 17.8376 14.6593C18.9041 14.9256 19.0968 15.6313 19.0646 16.1908L17.8361 21.1191C17.9096 21.1378 18.0048 21.1648 18.1098 21.2068C18.0221 21.1851 17.9283 21.1611 17.8316 21.1378L16.1096 28.0416C15.9791 28.3656 15.6483 28.8516 14.9028 28.6671C14.9291 28.7053 12.9888 28.1893 12.9888 28.1893L11.6816 31.2036L15.1083 32.0578C15.7458 32.2176 16.3706 32.3848 16.9856 32.5423L15.8958 36.9178L18.5261 37.5741L19.6053 33.2451C20.3238 33.4401 21.0213 33.6201 21.7038 33.7896L20.6283 38.0983L23.2616 38.7546L24.3513 34.3873C28.8416 35.2371 32.2181 34.8943 33.6393 30.8331C34.7846 27.5631 33.5823 25.6768 31.2198 24.4468C32.9403 24.0501 34.2363 22.9183 34.5821 20.5806ZM28.5656 29.0173C27.7518 32.2873 22.2461 30.5196 20.4611 30.0763L21.9071 24.2796C23.6921 24.7251 29.4161 25.6071 28.5656 29.0173ZM29.3801 20.5333C28.6376 23.5078 24.0551 21.9966 22.5686 21.6261L23.8796 16.3686C25.3661 16.7391 30.1533 17.4306 29.3801 20.5333Z" fill="white"/>
</svg>
